<?xml version="1.0" encoding="utf-8" standalone="no"?>
<!DOCTYPE svg PUBLIC "-//W3C//DTD SVG 1.1//EN"
  "http://www.w3.org/Graphics/SVG/1.1/DTD/svg11.dtd">
<svg xmlns:xlink="http://www.w3.org/1999/xlink" width="460.8pt" height="345.6pt" viewBox="0 0 460.8 345.6" xmlns="http://www.w3.org/2000/svg" version="1.1">
 <metadata>
  <rdf:RDF xmlns:dc="http://purl.org/dc/elements/1.1/" xmlns:cc="http://creativecommons.org/ns#" xmlns:rdf="http://www.w3.org/1999/02/22-rdf-syntax-ns#">
   <cc:Work>
    <dc:type rdf:resource="http://purl.org/dc/dcmitype/StillImage"/>
    <dc:date>2023-10-12T14:23:10.285524</dc:date>
    <dc:format>image/svg+xml</dc:format>
    <dc:creator>
     <cc:Agent>
      <dc:title>Matplotlib v3.5.2, https://matplotlib.org/</dc:title>
     </cc:Agent>
    </dc:creator>
   </cc:Work>
  </rdf:RDF>
 </metadata>
 <defs>
  <style type="text/css">*{stroke-linejoin: round; stroke-linecap: butt}</style>
 </defs>
 <g id="figure_1">
  <g id="patch_1">
   <path d="M 0 345.6 
L 460.8 345.6 
L 460.8 0 
L 0 0 
z
" style="fill: #ffffff"/>
  </g>
  <g id="axes_1">
   <g id="patch_2">
    <path d="M 57.6 307.584 
L 414.72 307.584 
L 414.72 41.472 
L 57.6 41.472 
z
" style="fill: #ffffff"/>
   </g>
   <g id="PolyCollection_1">
    <path d="M 312.32123 174.452901 
L 287.392872 208.439398 
L 330.278954 175.632618 
z
" clip-path="url(#pc91ceb5b8a)" style="fill: #1f77b4; fill-opacity: 0.4; stroke: #ff0000; stroke-opacity: 0.4"/>
    <path d="M 229.785862 260.957645 
L 189.76356 269.266445 
L 196.283816 299.115009 
z
" clip-path="url(#pc91ceb5b8a)" style="fill: #1f77b4; fill-opacity: 0.4; stroke: #ff0000; stroke-opacity: 0.4"/>
    <path d="M 232.362883 304.213027 
L 229.785862 260.957645 
L 196.283816 299.115009 
z
" clip-path="url(#pc91ceb5b8a)" style="fill: #1f77b4; fill-opacity: 0.4; stroke: #ff0000; stroke-opacity: 0.4"/>
    <path d="M 298.985878 257.422188 
L 273.325505 272.58053 
L 287.309362 284.861431 
z
" clip-path="url(#pc91ceb5b8a)" style="fill: #1f77b4; fill-opacity: 0.4; stroke: #ff0000; stroke-opacity: 0.4"/>
    <path d="M 273.325505 272.58053 
L 229.785862 260.957645 
L 247.085934 276.68244 
z
" clip-path="url(#pc91ceb5b8a)" style="fill: #1f77b4; fill-opacity: 0.4; stroke: #ff0000; stroke-opacity: 0.4"/>
    <path d="M 273.325505 272.58053 
L 247.085934 276.68244 
L 232.362883 304.213027 
z
" clip-path="url(#pc91ceb5b8a)" style="fill: #1f77b4; fill-opacity: 0.4; stroke: #ff0000; stroke-opacity: 0.4"/>
    <path d="M 136.695327 136.383236 
L 160.570941 117.81951 
L 106.103308 134.265837 
z
" clip-path="url(#pc91ceb5b8a)" style="fill: #1f77b4; fill-opacity: 0.4; stroke: #ff0000; stroke-opacity: 0.4"/>
    <path d="M 106.103308 134.265837 
L 87.398812 118.366062 
L 73.105372 137.091146 
z
" clip-path="url(#pc91ceb5b8a)" style="fill: #1f77b4; fill-opacity: 0.4; stroke: #ff0000; stroke-opacity: 0.4"/>
    <path d="M 125.673423 174.535024 
L 73.336848 195.620456 
L 113.953902 210.64771 
z
" clip-path="url(#pc91ceb5b8a)" style="fill: #1f77b4; fill-opacity: 0.4; stroke: #ff0000; stroke-opacity: 0.4"/>
    <path d="M 106.103308 134.265837 
L 137.063539 99.171934 
L 87.398812 118.366062 
z
" clip-path="url(#pc91ceb5b8a)" style="fill: #1f77b4; fill-opacity: 0.4; stroke: #ff0000; stroke-opacity: 0.4"/>
    <path d="M 86.494394 177.089956 
L 59.852529 168.213454 
L 73.336848 195.620456 
z
" clip-path="url(#pc91ceb5b8a)" style="fill: #1f77b4; fill-opacity: 0.4; stroke: #ff0000; stroke-opacity: 0.4"/>
    <path d="M 125.673423 174.535024 
L 106.103308 134.265837 
L 59.852529 168.213454 
z
" clip-path="url(#pc91ceb5b8a)" style="fill: #1f77b4; fill-opacity: 0.4; stroke: #ff0000; stroke-opacity: 0.4"/>
    <path d="M 59.852529 168.213454 
L 106.103308 134.265837 
L 73.105372 137.091146 
z
" clip-path="url(#pc91ceb5b8a)" style="fill: #1f77b4; fill-opacity: 0.4; stroke: #ff0000; stroke-opacity: 0.4"/>
    <path d="M 106.103308 134.265837 
L 125.673423 174.535024 
L 136.695327 136.383236 
z
" clip-path="url(#pc91ceb5b8a)" style="fill: #1f77b4; fill-opacity: 0.4; stroke: #ff0000; stroke-opacity: 0.4"/>
    <path d="M 241.492398 140.718269 
L 179.225409 130.435022 
L 190.644924 162.47673 
z
" clip-path="url(#pc91ceb5b8a)" style="fill: #1f77b4; fill-opacity: 0.4; stroke: #ff0000; stroke-opacity: 0.4"/>
    <path d="M 125.673423 174.535024 
L 59.852529 168.213454 
L 86.494394 177.089956 
z
" clip-path="url(#pc91ceb5b8a)" style="fill: #1f77b4; fill-opacity: 0.4; stroke: #ff0000; stroke-opacity: 0.4"/>
    <path d="M 330.278954 175.632618 
L 287.392872 208.439398 
L 330.631712 196.166336 
z
" clip-path="url(#pc91ceb5b8a)" style="fill: #1f77b4; fill-opacity: 0.4; stroke: #ff0000; stroke-opacity: 0.4"/>
    <path d="M 164.626693 199.512886 
L 182.103019 200.996021 
L 190.644924 162.47673 
z
" clip-path="url(#pc91ceb5b8a)" style="fill: #1f77b4; fill-opacity: 0.4; stroke: #ff0000; stroke-opacity: 0.4"/>
    <path d="M 168.939204 252.668687 
L 138.794498 250.485778 
L 131.44845 271.589022 
z
" clip-path="url(#pc91ceb5b8a)" style="fill: #1f77b4; fill-opacity: 0.4; stroke: #ff0000; stroke-opacity: 0.4"/>
    <path d="M 258.889591 176.542673 
L 233.456327 176.542673 
L 237.599599 202.476803 
z
" clip-path="url(#pc91ceb5b8a)" style="fill: #1f77b4; fill-opacity: 0.4; stroke: #ff0000; stroke-opacity: 0.4"/>
    <path d="M 168.939204 252.668687 
L 165.201986 223.497724 
L 149.560559 240.017522 
z
" clip-path="url(#pc91ceb5b8a)" style="fill: #1f77b4; fill-opacity: 0.4; stroke: #ff0000; stroke-opacity: 0.4"/>
    <path d="M 305.645316 238.274465 
L 282.048432 226.647233 
L 298.985878 257.422188 
z
" clip-path="url(#pc91ceb5b8a)" style="fill: #1f77b4; fill-opacity: 0.4; stroke: #ff0000; stroke-opacity: 0.4"/>
    <path d="M 182.103019 200.996021 
L 242.191463 234.426794 
L 237.599599 202.476803 
z
" clip-path="url(#pc91ceb5b8a)" style="fill: #1f77b4; fill-opacity: 0.4; stroke: #ff0000; stroke-opacity: 0.4"/>
    <path d="M 138.340988 248.506158 
L 138.794498 250.485778 
L 149.560559 240.017522 
z
" clip-path="url(#pc91ceb5b8a)" style="fill: #1f77b4; fill-opacity: 0.4; stroke: #ff0000; stroke-opacity: 0.4"/>
    <path d="M 204.822615 240.802238 
L 182.103019 200.996021 
L 168.939204 252.668687 
z
" clip-path="url(#pc91ceb5b8a)" style="fill: #1f77b4; fill-opacity: 0.4; stroke: #ff0000; stroke-opacity: 0.4"/>
    <path d="M 168.939204 252.668687 
L 158.252592 299.247295 
L 189.76356 269.266445 
z
" clip-path="url(#pc91ceb5b8a)" style="fill: #1f77b4; fill-opacity: 0.4; stroke: #ff0000; stroke-opacity: 0.4"/>
    <path d="M 258.889591 176.542673 
L 237.599599 202.476803 
L 289.294149 182.025277 
z
" clip-path="url(#pc91ceb5b8a)" style="fill: #1f77b4; fill-opacity: 0.4; stroke: #ff0000; stroke-opacity: 0.4"/>
    <path d="M 113.953902 210.64771 
L 73.336848 195.620456 
L 88.588634 231.87363 
z
" clip-path="url(#pc91ceb5b8a)" style="fill: #1f77b4; fill-opacity: 0.4; stroke: #ff0000; stroke-opacity: 0.4"/>
    <path d="M 204.822615 240.802238 
L 168.939204 252.668687 
L 189.76356 269.266445 
z
" clip-path="url(#pc91ceb5b8a)" style="fill: #1f77b4; fill-opacity: 0.4; stroke: #ff0000; stroke-opacity: 0.4"/>
    <path d="M 138.794498 250.485778 
L 138.340988 248.506158 
L 111.154125 269.213034 
z
" clip-path="url(#pc91ceb5b8a)" style="fill: #1f77b4; fill-opacity: 0.4; stroke: #ff0000; stroke-opacity: 0.4"/>
    <path d="M 242.191463 234.426794 
L 182.103019 200.996021 
L 204.822615 240.802238 
z
" clip-path="url(#pc91ceb5b8a)" style="fill: #1f77b4; fill-opacity: 0.4; stroke: #ff0000; stroke-opacity: 0.4"/>
    <path d="M 179.225409 130.435022 
L 171.611269 146.208644 
L 190.644924 162.47673 
z
" clip-path="url(#pc91ceb5b8a)" style="fill: #1f77b4; fill-opacity: 0.4; stroke: #ff0000; stroke-opacity: 0.4"/>
    <path d="M 171.611269 146.208644 
L 125.673423 174.535024 
L 168.711317 180.792705 
z
" clip-path="url(#pc91ceb5b8a)" style="fill: #1f77b4; fill-opacity: 0.4; stroke: #ff0000; stroke-opacity: 0.4"/>
    <path d="M 287.392872 208.439398 
L 242.191463 234.426794 
L 282.048432 226.647233 
z
" clip-path="url(#pc91ceb5b8a)" style="fill: #1f77b4; fill-opacity: 0.4; stroke: #ff0000; stroke-opacity: 0.4"/>
    <path d="M 138.340988 248.506158 
L 96.443316 246.569197 
L 111.154125 269.213034 
z
" clip-path="url(#pc91ceb5b8a)" style="fill: #1f77b4; fill-opacity: 0.4; stroke: #ff0000; stroke-opacity: 0.4"/>
    <path d="M 122.0259 237.814884 
L 88.588634 231.87363 
L 96.443316 246.569197 
z
" clip-path="url(#pc91ceb5b8a)" style="fill: #1f77b4; fill-opacity: 0.4; stroke: #ff0000; stroke-opacity: 0.4"/>
    <path d="M 298.985878 257.422188 
L 282.048432 226.647233 
L 273.325505 272.58053 
z
" clip-path="url(#pc91ceb5b8a)" style="fill: #1f77b4; fill-opacity: 0.4; stroke: #ff0000; stroke-opacity: 0.4"/>
    <path d="M 122.0259 237.814884 
L 138.340988 248.506158 
L 149.560559 240.017522 
z
" clip-path="url(#pc91ceb5b8a)" style="fill: #1f77b4; fill-opacity: 0.4; stroke: #ff0000; stroke-opacity: 0.4"/>
    <path d="M 148.003646 200.930185 
L 113.953902 210.64771 
L 122.0259 237.814884 
z
" clip-path="url(#pc91ceb5b8a)" style="fill: #1f77b4; fill-opacity: 0.4; stroke: #ff0000; stroke-opacity: 0.4"/>
    <path d="M 276.67866 135.171512 
L 258.889591 176.542673 
L 289.294149 182.025277 
z
" clip-path="url(#pc91ceb5b8a)" style="fill: #1f77b4; fill-opacity: 0.4; stroke: #ff0000; stroke-opacity: 0.4"/>
    <path d="M 113.953902 210.64771 
L 88.588634 231.87363 
L 122.0259 237.814884 
z
" clip-path="url(#pc91ceb5b8a)" style="fill: #1f77b4; fill-opacity: 0.4; stroke: #ff0000; stroke-opacity: 0.4"/>
    <path d="M 237.599599 202.476803 
L 242.191463 234.426794 
L 287.392872 208.439398 
z
" clip-path="url(#pc91ceb5b8a)" style="fill: #1f77b4; fill-opacity: 0.4; stroke: #ff0000; stroke-opacity: 0.4"/>
    <path d="M 103.773398 84.005595 
L 87.398812 118.366062 
L 137.063539 99.171934 
z
" clip-path="url(#pc91ceb5b8a)" style="fill: #1f77b4; fill-opacity: 0.4; stroke: #ff0000; stroke-opacity: 0.4"/>
    <path d="M 168.711317 180.792705 
L 148.003646 200.930185 
L 164.626693 199.512886 
z
" clip-path="url(#pc91ceb5b8a)" style="fill: #1f77b4; fill-opacity: 0.4; stroke: #ff0000; stroke-opacity: 0.4"/>
    <path d="M 237.599599 202.476803 
L 287.392872 208.439398 
L 289.294149 182.025277 
z
" clip-path="url(#pc91ceb5b8a)" style="fill: #1f77b4; fill-opacity: 0.4; stroke: #ff0000; stroke-opacity: 0.4"/>
    <path d="M 164.626693 199.512886 
L 149.560559 240.017522 
L 165.201986 223.497724 
z
" clip-path="url(#pc91ceb5b8a)" style="fill: #1f77b4; fill-opacity: 0.4; stroke: #ff0000; stroke-opacity: 0.4"/>
    <path d="M 86.494394 177.089956 
L 73.336848 195.620456 
L 125.673423 174.535024 
z
" clip-path="url(#pc91ceb5b8a)" style="fill: #1f77b4; fill-opacity: 0.4; stroke: #ff0000; stroke-opacity: 0.4"/>
    <path d="M 190.644924 162.47673 
L 182.103019 200.996021 
L 233.456327 176.542673 
z
" clip-path="url(#pc91ceb5b8a)" style="fill: #1f77b4; fill-opacity: 0.4; stroke: #ff0000; stroke-opacity: 0.4"/>
    <path d="M 182.103019 200.996021 
L 237.599599 202.476803 
L 233.456327 176.542673 
z
" clip-path="url(#pc91ceb5b8a)" style="fill: #1f77b4; fill-opacity: 0.4; stroke: #ff0000; stroke-opacity: 0.4"/>
    <path d="M 242.191463 234.426794 
L 204.822615 240.802238 
L 229.785862 260.957645 
z
" clip-path="url(#pc91ceb5b8a)" style="fill: #1f77b4; fill-opacity: 0.4; stroke: #ff0000; stroke-opacity: 0.4"/>
    <path d="M 168.711317 180.792705 
L 164.626693 199.512886 
L 190.644924 162.47673 
z
" clip-path="url(#pc91ceb5b8a)" style="fill: #1f77b4; fill-opacity: 0.4; stroke: #ff0000; stroke-opacity: 0.4"/>
    <path d="M 168.939204 252.668687 
L 149.560559 240.017522 
L 138.794498 250.485778 
z
" clip-path="url(#pc91ceb5b8a)" style="fill: #1f77b4; fill-opacity: 0.4; stroke: #ff0000; stroke-opacity: 0.4"/>
    <path d="M 168.939204 252.668687 
L 131.44845 271.589022 
L 130.720271 290.721821 
z
" clip-path="url(#pc91ceb5b8a)" style="fill: #1f77b4; fill-opacity: 0.4; stroke: #ff0000; stroke-opacity: 0.4"/>
    <path d="M 229.785862 260.957645 
L 204.822615 240.802238 
L 189.76356 269.266445 
z
" clip-path="url(#pc91ceb5b8a)" style="fill: #1f77b4; fill-opacity: 0.4; stroke: #ff0000; stroke-opacity: 0.4"/>
    <path d="M 289.294149 182.025277 
L 287.392872 208.439398 
L 312.32123 174.452901 
z
" clip-path="url(#pc91ceb5b8a)" style="fill: #1f77b4; fill-opacity: 0.4; stroke: #ff0000; stroke-opacity: 0.4"/>
    <path d="M 168.939204 252.668687 
L 130.720271 290.721821 
L 158.252592 299.247295 
z
" clip-path="url(#pc91ceb5b8a)" style="fill: #1f77b4; fill-opacity: 0.4; stroke: #ff0000; stroke-opacity: 0.4"/>
    <path d="M 241.492398 140.718269 
L 233.456327 176.542673 
L 258.889591 176.542673 
z
" clip-path="url(#pc91ceb5b8a)" style="fill: #1f77b4; fill-opacity: 0.4; stroke: #ff0000; stroke-opacity: 0.4"/>
    <path d="M 241.492398 140.718269 
L 258.889591 176.542673 
L 276.67866 135.171512 
z
" clip-path="url(#pc91ceb5b8a)" style="fill: #1f77b4; fill-opacity: 0.4; stroke: #ff0000; stroke-opacity: 0.4"/>
    <path d="M 190.644924 162.47673 
L 233.456327 176.542673 
L 241.492398 140.718269 
z
" clip-path="url(#pc91ceb5b8a)" style="fill: #1f77b4; fill-opacity: 0.4; stroke: #ff0000; stroke-opacity: 0.4"/>
    <path d="M 182.103019 200.996021 
L 165.201986 223.497724 
L 168.939204 252.668687 
z
" clip-path="url(#pc91ceb5b8a)" style="fill: #1f77b4; fill-opacity: 0.4; stroke: #ff0000; stroke-opacity: 0.4"/>
    <path d="M 125.673423 174.535024 
L 113.953902 210.64771 
L 148.003646 200.930185 
z
" clip-path="url(#pc91ceb5b8a)" style="fill: #1f77b4; fill-opacity: 0.4; stroke: #ff0000; stroke-opacity: 0.4"/>
    <path d="M 168.711317 180.792705 
L 125.673423 174.535024 
L 148.003646 200.930185 
z
" clip-path="url(#pc91ceb5b8a)" style="fill: #1f77b4; fill-opacity: 0.4; stroke: #ff0000; stroke-opacity: 0.4"/>
    <path d="M 122.0259 237.814884 
L 96.443316 246.569197 
L 138.340988 248.506158 
z
" clip-path="url(#pc91ceb5b8a)" style="fill: #1f77b4; fill-opacity: 0.4; stroke: #ff0000; stroke-opacity: 0.4"/>
    <path d="M 189.76356 269.266445 
L 158.252592 299.247295 
L 196.283816 299.115009 
z
" clip-path="url(#pc91ceb5b8a)" style="fill: #1f77b4; fill-opacity: 0.4; stroke: #ff0000; stroke-opacity: 0.4"/>
    <path d="M 138.794498 250.485778 
L 111.154125 269.213034 
L 131.44845 271.589022 
z
" clip-path="url(#pc91ceb5b8a)" style="fill: #1f77b4; fill-opacity: 0.4; stroke: #ff0000; stroke-opacity: 0.4"/>
    <path d="M 148.003646 200.930185 
L 149.560559 240.017522 
L 164.626693 199.512886 
z
" clip-path="url(#pc91ceb5b8a)" style="fill: #1f77b4; fill-opacity: 0.4; stroke: #ff0000; stroke-opacity: 0.4"/>
    <path d="M 148.003646 200.930185 
L 122.0259 237.814884 
L 149.560559 240.017522 
z
" clip-path="url(#pc91ceb5b8a)" style="fill: #1f77b4; fill-opacity: 0.4; stroke: #ff0000; stroke-opacity: 0.4"/>
    <path d="M 182.103019 200.996021 
L 164.626693 199.512886 
L 165.201986 223.497724 
z
" clip-path="url(#pc91ceb5b8a)" style="fill: #1f77b4; fill-opacity: 0.4; stroke: #ff0000; stroke-opacity: 0.4"/>
    <path d="M 287.392872 208.439398 
L 282.048432 226.647233 
L 330.631712 196.166336 
z
" clip-path="url(#pc91ceb5b8a)" style="fill: #1f77b4; fill-opacity: 0.4; stroke: #ff0000; stroke-opacity: 0.4"/>
    <path d="M 282.048432 226.647233 
L 242.191463 234.426794 
L 229.785862 260.957645 
z
" clip-path="url(#pc91ceb5b8a)" style="fill: #1f77b4; fill-opacity: 0.4; stroke: #ff0000; stroke-opacity: 0.4"/>
    <path d="M 73.336848 195.620456 
L 57.6 221.523979 
L 88.588634 231.87363 
z
" clip-path="url(#pc91ceb5b8a)" style="fill: #1f77b4; fill-opacity: 0.4; stroke: #ff0000; stroke-opacity: 0.4"/>
    <path d="M 247.085934 276.68244 
L 229.785862 260.957645 
L 232.362883 304.213027 
z
" clip-path="url(#pc91ceb5b8a)" style="fill: #1f77b4; fill-opacity: 0.4; stroke: #ff0000; stroke-opacity: 0.4"/>
    <path d="M 190.644924 162.47673 
L 171.611269 146.208644 
L 168.711317 180.792705 
z
" clip-path="url(#pc91ceb5b8a)" style="fill: #1f77b4; fill-opacity: 0.4; stroke: #ff0000; stroke-opacity: 0.4"/>
    <path d="M 368.242923 223.031191 
L 330.631712 196.166336 
L 305.645316 238.274465 
z
" clip-path="url(#pc91ceb5b8a)" style="fill: #1f77b4; fill-opacity: 0.4; stroke: #ff0000; stroke-opacity: 0.4"/>
    <path d="M 282.048432 226.647233 
L 229.785862 260.957645 
L 273.325505 272.58053 
z
" clip-path="url(#pc91ceb5b8a)" style="fill: #1f77b4; fill-opacity: 0.4; stroke: #ff0000; stroke-opacity: 0.4"/>
    <path d="M 282.048432 226.647233 
L 305.645316 238.274465 
L 330.631712 196.166336 
z
" clip-path="url(#pc91ceb5b8a)" style="fill: #1f77b4; fill-opacity: 0.4; stroke: #ff0000; stroke-opacity: 0.4"/>
    <path d="M 312.11258 142.975038 
L 276.67866 135.171512 
L 289.294149 182.025277 
z
" clip-path="url(#pc91ceb5b8a)" style="fill: #1f77b4; fill-opacity: 0.4; stroke: #ff0000; stroke-opacity: 0.4"/>
    <path d="M 312.11258 142.975038 
L 312.32123 174.452901 
L 325.706789 118.211988 
z
" clip-path="url(#pc91ceb5b8a)" style="fill: #1f77b4; fill-opacity: 0.4; stroke: #ff0000; stroke-opacity: 0.4"/>
    <path d="M 330.278954 175.632618 
L 393.198728 163.158175 
L 368.747771 134.883998 
z
" clip-path="url(#pc91ceb5b8a)" style="fill: #1f77b4; fill-opacity: 0.4; stroke: #ff0000; stroke-opacity: 0.4"/>
    <path d="M 281.604876 111.869143 
L 325.706789 118.211988 
L 347.954441 96.647359 
z
" clip-path="url(#pc91ceb5b8a)" style="fill: #1f77b4; fill-opacity: 0.4; stroke: #ff0000; stroke-opacity: 0.4"/>
    <path d="M 312.11258 142.975038 
L 325.706789 118.211988 
L 276.67866 135.171512 
z
" clip-path="url(#pc91ceb5b8a)" style="fill: #1f77b4; fill-opacity: 0.4; stroke: #ff0000; stroke-opacity: 0.4"/>
    <path d="M 125.673423 174.535024 
L 171.611269 146.208644 
L 136.695327 136.383236 
z
" clip-path="url(#pc91ceb5b8a)" style="fill: #1f77b4; fill-opacity: 0.4; stroke: #ff0000; stroke-opacity: 0.4"/>
    <path d="M 330.278954 175.632618 
L 368.747771 134.883998 
L 312.32123 174.452901 
z
" clip-path="url(#pc91ceb5b8a)" style="fill: #1f77b4; fill-opacity: 0.4; stroke: #ff0000; stroke-opacity: 0.4"/>
    <path d="M 368.747771 134.883998 
L 393.198728 163.158175 
L 379.392187 114.139104 
z
" clip-path="url(#pc91ceb5b8a)" style="fill: #1f77b4; fill-opacity: 0.4; stroke: #ff0000; stroke-opacity: 0.4"/>
    <path d="M 325.706789 118.211988 
L 368.747771 134.883998 
L 379.392187 114.139104 
z
" clip-path="url(#pc91ceb5b8a)" style="fill: #1f77b4; fill-opacity: 0.4; stroke: #ff0000; stroke-opacity: 0.4"/>
    <path d="M 312.32123 174.452901 
L 368.747771 134.883998 
L 325.706789 118.211988 
z
" clip-path="url(#pc91ceb5b8a)" style="fill: #1f77b4; fill-opacity: 0.4; stroke: #ff0000; stroke-opacity: 0.4"/>
    <path d="M 325.706789 118.211988 
L 379.392187 114.139104 
L 347.954441 96.647359 
z
" clip-path="url(#pc91ceb5b8a)" style="fill: #1f77b4; fill-opacity: 0.4; stroke: #ff0000; stroke-opacity: 0.4"/>
    <path d="M 368.242923 223.031191 
L 414.72 190.641372 
L 330.631712 196.166336 
z
" clip-path="url(#pc91ceb5b8a)" style="fill: #1f77b4; fill-opacity: 0.4; stroke: #ff0000; stroke-opacity: 0.4"/>
    <path d="M 103.773398 84.005595 
L 137.063539 99.171934 
L 125.916119 84.887156 
z
" clip-path="url(#pc91ceb5b8a)" style="fill: #1f77b4; fill-opacity: 0.4; stroke: #ff0000; stroke-opacity: 0.4"/>
    <path d="M 137.063539 99.171934 
L 154.42436 89.569573 
L 125.916119 84.887156 
z
" clip-path="url(#pc91ceb5b8a)" style="fill: #1f77b4; fill-opacity: 0.4; stroke: #ff0000; stroke-opacity: 0.4"/>
    <path d="M 125.916119 84.887156 
L 154.42436 89.569573 
L 136.457781 70.912828 
z
" clip-path="url(#pc91ceb5b8a)" style="fill: #1f77b4; fill-opacity: 0.4; stroke: #ff0000; stroke-opacity: 0.4"/>
    <path d="M 161.427896 74.841237 
L 146.198277 53.337588 
L 136.457781 70.912828 
z
" clip-path="url(#pc91ceb5b8a)" style="fill: #1f77b4; fill-opacity: 0.4; stroke: #ff0000; stroke-opacity: 0.4"/>
    <path d="M 154.42436 89.569573 
L 161.427896 74.841237 
L 136.457781 70.912828 
z
" clip-path="url(#pc91ceb5b8a)" style="fill: #1f77b4; fill-opacity: 0.4; stroke: #ff0000; stroke-opacity: 0.4"/>
    <path d="M 154.42436 89.569573 
L 172.204441 95.999926 
L 161.427896 74.841237 
z
" clip-path="url(#pc91ceb5b8a)" style="fill: #1f77b4; fill-opacity: 0.4; stroke: #ff0000; stroke-opacity: 0.4"/>
    <path d="M 137.063539 99.171934 
L 160.570941 117.81951 
L 154.42436 89.569573 
z
" clip-path="url(#pc91ceb5b8a)" style="fill: #1f77b4; fill-opacity: 0.4; stroke: #ff0000; stroke-opacity: 0.4"/>
    <path d="M 160.570941 117.81951 
L 170.783072 111.170475 
L 154.42436 89.569573 
z
" clip-path="url(#pc91ceb5b8a)" style="fill: #1f77b4; fill-opacity: 0.4; stroke: #ff0000; stroke-opacity: 0.4"/>
    <path d="M 170.783072 111.170475 
L 172.204441 95.999926 
L 154.42436 89.569573 
z
" clip-path="url(#pc91ceb5b8a)" style="fill: #1f77b4; fill-opacity: 0.4; stroke: #ff0000; stroke-opacity: 0.4"/>
    <path d="M 161.427896 74.841237 
L 172.204441 95.999926 
L 183.199183 68.430671 
z
" clip-path="url(#pc91ceb5b8a)" style="fill: #1f77b4; fill-opacity: 0.4; stroke: #ff0000; stroke-opacity: 0.4"/>
    <path d="M 281.604876 111.869143 
L 347.954441 96.647359 
L 327.008716 71.770657 
z
" clip-path="url(#pc91ceb5b8a)" style="fill: #1f77b4; fill-opacity: 0.4; stroke: #ff0000; stroke-opacity: 0.4"/>
    <path d="M 172.204441 95.999926 
L 221.082953 79.19392 
L 183.199183 68.430671 
z
" clip-path="url(#pc91ceb5b8a)" style="fill: #1f77b4; fill-opacity: 0.4; stroke: #ff0000; stroke-opacity: 0.4"/>
    <path d="M 183.199183 68.430671 
L 228.854097 67.54252 
L 205.030723 42.52067 
z
" clip-path="url(#pc91ceb5b8a)" style="fill: #1f77b4; fill-opacity: 0.4; stroke: #ff0000; stroke-opacity: 0.4"/>
    <path d="M 172.204441 95.999926 
L 170.783072 111.170475 
L 221.082953 79.19392 
z
" clip-path="url(#pc91ceb5b8a)" style="fill: #1f77b4; fill-opacity: 0.4; stroke: #ff0000; stroke-opacity: 0.4"/>
    <path d="M 179.225409 130.435022 
L 160.570941 117.81951 
L 136.695327 136.383236 
z
" clip-path="url(#pc91ceb5b8a)" style="fill: #1f77b4; fill-opacity: 0.4; stroke: #ff0000; stroke-opacity: 0.4"/>
    <path d="M 171.611269 146.208644 
L 179.225409 130.435022 
L 136.695327 136.383236 
z
" clip-path="url(#pc91ceb5b8a)" style="fill: #1f77b4; fill-opacity: 0.4; stroke: #ff0000; stroke-opacity: 0.4"/>
    <path d="M 179.225409 130.435022 
L 170.783072 111.170475 
L 160.570941 117.81951 
z
" clip-path="url(#pc91ceb5b8a)" style="fill: #1f77b4; fill-opacity: 0.4; stroke: #ff0000; stroke-opacity: 0.4"/>
    <path d="M 183.199183 68.430671 
L 221.082953 79.19392 
L 228.854097 67.54252 
z
" clip-path="url(#pc91ceb5b8a)" style="fill: #1f77b4; fill-opacity: 0.4; stroke: #ff0000; stroke-opacity: 0.4"/>
    <path d="M 179.225409 130.435022 
L 229.522956 103.588509 
L 170.783072 111.170475 
z
" clip-path="url(#pc91ceb5b8a)" style="fill: #1f77b4; fill-opacity: 0.4; stroke: #ff0000; stroke-opacity: 0.4"/>
    <path d="M 170.783072 111.170475 
L 229.522956 103.588509 
L 221.082953 79.19392 
z
" clip-path="url(#pc91ceb5b8a)" style="fill: #1f77b4; fill-opacity: 0.4; stroke: #ff0000; stroke-opacity: 0.4"/>
    <path d="M 330.631712 196.166336 
L 414.72 190.641372 
L 330.278954 175.632618 
z
" clip-path="url(#pc91ceb5b8a)" style="fill: #1f77b4; fill-opacity: 0.4; stroke: #ff0000; stroke-opacity: 0.4"/>
    <path d="M 330.278954 175.632618 
L 414.72 190.641372 
L 393.198728 163.158175 
z
" clip-path="url(#pc91ceb5b8a)" style="fill: #1f77b4; fill-opacity: 0.4; stroke: #ff0000; stroke-opacity: 0.4"/>
    <path d="M 229.522956 103.588509 
L 179.225409 130.435022 
L 241.492398 140.718269 
z
" clip-path="url(#pc91ceb5b8a)" style="fill: #1f77b4; fill-opacity: 0.4; stroke: #ff0000; stroke-opacity: 0.4"/>
    <path d="M 221.082953 79.19392 
L 276.924583 78.36628 
L 228.854097 67.54252 
z
" clip-path="url(#pc91ceb5b8a)" style="fill: #1f77b4; fill-opacity: 0.4; stroke: #ff0000; stroke-opacity: 0.4"/>
    <path d="M 289.294149 182.025277 
L 312.32123 174.452901 
L 312.11258 142.975038 
z
" clip-path="url(#pc91ceb5b8a)" style="fill: #1f77b4; fill-opacity: 0.4; stroke: #ff0000; stroke-opacity: 0.4"/>
    <path d="M 106.103308 134.265837 
L 160.570941 117.81951 
L 137.063539 99.171934 
z
" clip-path="url(#pc91ceb5b8a)" style="fill: #1f77b4; fill-opacity: 0.4; stroke: #ff0000; stroke-opacity: 0.4"/>
    <path d="M 229.522956 103.588509 
L 276.924583 78.36628 
L 221.082953 79.19392 
z
" clip-path="url(#pc91ceb5b8a)" style="fill: #1f77b4; fill-opacity: 0.4; stroke: #ff0000; stroke-opacity: 0.4"/>
    <path d="M 229.522956 103.588509 
L 281.604876 111.869143 
L 276.924583 78.36628 
z
" clip-path="url(#pc91ceb5b8a)" style="fill: #1f77b4; fill-opacity: 0.4; stroke: #ff0000; stroke-opacity: 0.4"/>
    <path d="M 241.492398 140.718269 
L 281.604876 111.869143 
L 229.522956 103.588509 
z
" clip-path="url(#pc91ceb5b8a)" style="fill: #1f77b4; fill-opacity: 0.4; stroke: #ff0000; stroke-opacity: 0.4"/>
    <path d="M 281.604876 111.869143 
L 304.156444 76.917764 
L 276.924583 78.36628 
z
" clip-path="url(#pc91ceb5b8a)" style="fill: #1f77b4; fill-opacity: 0.4; stroke: #ff0000; stroke-opacity: 0.4"/>
    <path d="M 281.604876 111.869143 
L 241.492398 140.718269 
L 276.67866 135.171512 
z
" clip-path="url(#pc91ceb5b8a)" style="fill: #1f77b4; fill-opacity: 0.4; stroke: #ff0000; stroke-opacity: 0.4"/>
    <path d="M 276.67866 135.171512 
L 325.706789 118.211988 
L 281.604876 111.869143 
z
" clip-path="url(#pc91ceb5b8a)" style="fill: #1f77b4; fill-opacity: 0.4; stroke: #ff0000; stroke-opacity: 0.4"/>
    <path d="M 281.604876 111.869143 
L 327.008716 71.770657 
L 304.156444 76.917764 
z
" clip-path="url(#pc91ceb5b8a)" style="fill: #1f77b4; fill-opacity: 0.4; stroke: #ff0000; stroke-opacity: 0.4"/>
   </g>
   <g id="PathCollection_1">
    <defs>
     <path id="m81bbf0f5da" d="M 0 3 
C 0.795609 3 1.55874 2.683901 2.12132 2.12132 
C 2.683901 1.55874 3 0.795609 3 0 
C 3 -0.795609 2.683901 -1.55874 2.12132 -2.12132 
C 1.55874 -2.683901 0.795609 -3 0 -3 
C -0.795609 -3 -1.55874 -2.683901 -2.12132 -2.12132 
C -2.683901 -1.55874 -3 -0.795609 -3 0 
C -3 0.795609 -2.683901 1.55874 -2.12132 2.12132 
C -1.55874 2.683901 -0.795609 3 0 3 
z
" style="stroke: #008000"/>
    </defs>
    <g clip-path="url(#pc91ceb5b8a)">
     <use xlink:href="#m81bbf0f5da" x="193.441356" y="146.725065" style="fill: #008000; stroke: #008000"/>
    </g>
   </g>
   <g id="patch_3">
    <path d="M 241.492398 140.718269 
L 179.225409 130.435022 
L 190.644924 162.47673 
L 241.492398 140.718269 
z
" clip-path="url(#pc91ceb5b8a)" style="fill: none; stroke: #800080; stroke-width: 3; stroke-linejoin: miter"/>
   </g>
   <g id="PathCollection_2">
    <defs>
     <path id="mb11ea2231f" d="M 0 4.743416 
C 1.257969 4.743416 2.464584 4.24362 3.354102 3.354102 
C 4.24362 2.464584 4.743416 1.257969 4.743416 0 
C 4.743416 -1.257969 4.24362 -2.464584 3.354102 -3.354102 
C 2.464584 -4.24362 1.257969 -4.743416 0 -4.743416 
C -1.257969 -4.743416 -2.464584 -4.24362 -3.354102 -3.354102 
C -4.24362 -2.464584 -4.743416 -1.257969 -4.743416 0 
C -4.743416 1.257969 -4.24362 2.464584 -3.354102 3.354102 
C -2.464584 4.24362 -1.257969 4.743416 0 4.743416 
z
" style="stroke: #800080"/>
    </defs>
    <g clip-path="url(#pc91ceb5b8a)">
     <use xlink:href="#mb11ea2231f" x="241.492398" y="140.718269" style="fill: #800080; stroke: #800080"/>
     <use xlink:href="#mb11ea2231f" x="179.225409" y="130.435022" style="fill: #800080; stroke: #800080"/>
     <use xlink:href="#mb11ea2231f" x="190.644924" y="162.47673" style="fill: #800080; stroke: #800080"/>
    </g>
   </g>
   <g id="matplotlib.axis_1">
    <g id="xtick_1">
     <g id="line2d_1">
      <defs>
       <path id="m6849822bd8" d="M 0 0 
L 0 3.5 
" style="stroke: #000000; stroke-width: 0.8"/>
      </defs>
      <g>
       <use xlink:href="#m6849822bd8" x="66.403282" y="307.584" style="stroke: #000000; stroke-width: 0.8"/>
      </g>
     </g>
     <g id="text_1">
      <!-- −0.08 -->
      <g transform="translate(51.080626 322.182437)scale(0.1 -0.1)">
       <defs>
        <path id="DejaVuSans-2212" d="M 678 2272 
L 4684 2272 
L 4684 1741 
L 678 1741 
L 678 2272 
z
" transform="scale(0.015625)"/>
        <path id="DejaVuSans-30" d="M 2034 4250 
Q 1547 4250 1301 3770 
Q 1056 3291 1056 2328 
Q 1056 1369 1301 889 
Q 1547 409 2034 409 
Q 2525 409 2770 889 
Q 3016 1369 3016 2328 
Q 3016 3291 2770 3770 
Q 2525 4250 2034 4250 
z
M 2034 4750 
Q 2819 4750 3233 4129 
Q 3647 3509 3647 2328 
Q 3647 1150 3233 529 
Q 2819 -91 2034 -91 
Q 1250 -91 836 529 
Q 422 1150 422 2328 
Q 422 3509 836 4129 
Q 1250 4750 2034 4750 
z
" transform="scale(0.015625)"/>
        <path id="DejaVuSans-2e" d="M 684 794 
L 1344 794 
L 1344 0 
L 684 0 
L 684 794 
z
" transform="scale(0.015625)"/>
        <path id="DejaVuSans-38" d="M 2034 2216 
Q 1584 2216 1326 1975 
Q 1069 1734 1069 1313 
Q 1069 891 1326 650 
Q 1584 409 2034 409 
Q 2484 409 2743 651 
Q 3003 894 3003 1313 
Q 3003 1734 2745 1975 
Q 2488 2216 2034 2216 
z
M 1403 2484 
Q 997 2584 770 2862 
Q 544 3141 544 3541 
Q 544 4100 942 4425 
Q 1341 4750 2034 4750 
Q 2731 4750 3128 4425 
Q 3525 4100 3525 3541 
Q 3525 3141 3298 2862 
Q 3072 2584 2669 2484 
Q 3125 2378 3379 2068 
Q 3634 1759 3634 1313 
Q 3634 634 3220 271 
Q 2806 -91 2034 -91 
Q 1263 -91 848 271 
Q 434 634 434 1313 
Q 434 1759 690 2068 
Q 947 2378 1403 2484 
z
M 1172 3481 
Q 1172 3119 1398 2916 
Q 1625 2713 2034 2713 
Q 2441 2713 2670 2916 
Q 2900 3119 2900 3481 
Q 2900 3844 2670 4047 
Q 2441 4250 2034 4250 
Q 1625 4250 1398 4047 
Q 1172 3844 1172 3481 
z
" transform="scale(0.015625)"/>
       </defs>
       <use xlink:href="#DejaVuSans-2212"/>
       <use xlink:href="#DejaVuSans-30" x="83.789062"/>
       <use xlink:href="#DejaVuSans-2e" x="147.412109"/>
       <use xlink:href="#DejaVuSans-30" x="179.199219"/>
       <use xlink:href="#DejaVuSans-38" x="242.822266"/>
      </g>
     </g>
    </g>
    <g id="xtick_2">
     <g id="line2d_2">
      <g>
       <use xlink:href="#m6849822bd8" x="108.166543" y="307.584" style="stroke: #000000; stroke-width: 0.8"/>
      </g>
     </g>
     <g id="text_2">
      <!-- −0.06 -->
      <g transform="translate(92.843887 322.182437)scale(0.1 -0.1)">
       <defs>
        <path id="DejaVuSans-36" d="M 2113 2584 
Q 1688 2584 1439 2293 
Q 1191 2003 1191 1497 
Q 1191 994 1439 701 
Q 1688 409 2113 409 
Q 2538 409 2786 701 
Q 3034 994 3034 1497 
Q 3034 2003 2786 2293 
Q 2538 2584 2113 2584 
z
M 3366 4563 
L 3366 3988 
Q 3128 4100 2886 4159 
Q 2644 4219 2406 4219 
Q 1781 4219 1451 3797 
Q 1122 3375 1075 2522 
Q 1259 2794 1537 2939 
Q 1816 3084 2150 3084 
Q 2853 3084 3261 2657 
Q 3669 2231 3669 1497 
Q 3669 778 3244 343 
Q 2819 -91 2113 -91 
Q 1303 -91 875 529 
Q 447 1150 447 2328 
Q 447 3434 972 4092 
Q 1497 4750 2381 4750 
Q 2619 4750 2861 4703 
Q 3103 4656 3366 4563 
z
" transform="scale(0.015625)"/>
       </defs>
       <use xlink:href="#DejaVuSans-2212"/>
       <use xlink:href="#DejaVuSans-30" x="83.789062"/>
       <use xlink:href="#DejaVuSans-2e" x="147.412109"/>
       <use xlink:href="#DejaVuSans-30" x="179.199219"/>
       <use xlink:href="#DejaVuSans-36" x="242.822266"/>
      </g>
     </g>
    </g>
    <g id="xtick_3">
     <g id="line2d_3">
      <g>
       <use xlink:href="#m6849822bd8" x="149.929804" y="307.584" style="stroke: #000000; stroke-width: 0.8"/>
      </g>
     </g>
     <g id="text_3">
      <!-- −0.04 -->
      <g transform="translate(134.607148 322.182437)scale(0.1 -0.1)">
       <defs>
        <path id="DejaVuSans-34" d="M 2419 4116 
L 825 1625 
L 2419 1625 
L 2419 4116 
z
M 2253 4666 
L 3047 4666 
L 3047 1625 
L 3713 1625 
L 3713 1100 
L 3047 1100 
L 3047 0 
L 2419 0 
L 2419 1100 
L 313 1100 
L 313 1709 
L 2253 4666 
z
" transform="scale(0.015625)"/>
       </defs>
       <use xlink:href="#DejaVuSans-2212"/>
       <use xlink:href="#DejaVuSans-30" x="83.789062"/>
       <use xlink:href="#DejaVuSans-2e" x="147.412109"/>
       <use xlink:href="#DejaVuSans-30" x="179.199219"/>
       <use xlink:href="#DejaVuSans-34" x="242.822266"/>
      </g>
     </g>
    </g>
    <g id="xtick_4">
     <g id="line2d_4">
      <g>
       <use xlink:href="#m6849822bd8" x="191.693066" y="307.584" style="stroke: #000000; stroke-width: 0.8"/>
      </g>
     </g>
     <g id="text_4">
      <!-- −0.02 -->
      <g transform="translate(176.370409 322.182437)scale(0.1 -0.1)">
       <defs>
        <path id="DejaVuSans-32" d="M 1228 531 
L 3431 531 
L 3431 0 
L 469 0 
L 469 531 
Q 828 903 1448 1529 
Q 2069 2156 2228 2338 
Q 2531 2678 2651 2914 
Q 2772 3150 2772 3378 
Q 2772 3750 2511 3984 
Q 2250 4219 1831 4219 
Q 1534 4219 1204 4116 
Q 875 4013 500 3803 
L 500 4441 
Q 881 4594 1212 4672 
Q 1544 4750 1819 4750 
Q 2544 4750 2975 4387 
Q 3406 4025 3406 3419 
Q 3406 3131 3298 2873 
Q 3191 2616 2906 2266 
Q 2828 2175 2409 1742 
Q 1991 1309 1228 531 
z
" transform="scale(0.015625)"/>
       </defs>
       <use xlink:href="#DejaVuSans-2212"/>
       <use xlink:href="#DejaVuSans-30" x="83.789062"/>
       <use xlink:href="#DejaVuSans-2e" x="147.412109"/>
       <use xlink:href="#DejaVuSans-30" x="179.199219"/>
       <use xlink:href="#DejaVuSans-32" x="242.822266"/>
      </g>
     </g>
    </g>
    <g id="xtick_5">
     <g id="line2d_5">
      <g>
       <use xlink:href="#m6849822bd8" x="233.456327" y="307.584" style="stroke: #000000; stroke-width: 0.8"/>
      </g>
     </g>
     <g id="text_5">
      <!-- 0.00 -->
      <g transform="translate(222.323514 322.182437)scale(0.1 -0.1)">
       <use xlink:href="#DejaVuSans-30"/>
       <use xlink:href="#DejaVuSans-2e" x="63.623047"/>
       <use xlink:href="#DejaVuSans-30" x="95.410156"/>
       <use xlink:href="#DejaVuSans-30" x="159.033203"/>
      </g>
     </g>
    </g>
    <g id="xtick_6">
     <g id="line2d_6">
      <g>
       <use xlink:href="#m6849822bd8" x="275.219588" y="307.584" style="stroke: #000000; stroke-width: 0.8"/>
      </g>
     </g>
     <g id="text_6">
      <!-- 0.02 -->
      <g transform="translate(264.086775 322.182437)scale(0.1 -0.1)">
       <use xlink:href="#DejaVuSans-30"/>
       <use xlink:href="#DejaVuSans-2e" x="63.623047"/>
       <use xlink:href="#DejaVuSans-30" x="95.410156"/>
       <use xlink:href="#DejaVuSans-32" x="159.033203"/>
      </g>
     </g>
    </g>
    <g id="xtick_7">
     <g id="line2d_7">
      <g>
       <use xlink:href="#m6849822bd8" x="316.982849" y="307.584" style="stroke: #000000; stroke-width: 0.8"/>
      </g>
     </g>
     <g id="text_7">
      <!-- 0.04 -->
      <g transform="translate(305.850037 322.182437)scale(0.1 -0.1)">
       <use xlink:href="#DejaVuSans-30"/>
       <use xlink:href="#DejaVuSans-2e" x="63.623047"/>
       <use xlink:href="#DejaVuSans-30" x="95.410156"/>
       <use xlink:href="#DejaVuSans-34" x="159.033203"/>
      </g>
     </g>
    </g>
    <g id="xtick_8">
     <g id="line2d_8">
      <g>
       <use xlink:href="#m6849822bd8" x="358.74611" y="307.584" style="stroke: #000000; stroke-width: 0.8"/>
      </g>
     </g>
     <g id="text_8">
      <!-- 0.06 -->
      <g transform="translate(347.613298 322.182437)scale(0.1 -0.1)">
       <use xlink:href="#DejaVuSans-30"/>
       <use xlink:href="#DejaVuSans-2e" x="63.623047"/>
       <use xlink:href="#DejaVuSans-30" x="95.410156"/>
       <use xlink:href="#DejaVuSans-36" x="159.033203"/>
      </g>
     </g>
    </g>
    <g id="xtick_9">
     <g id="line2d_9">
      <g>
       <use xlink:href="#m6849822bd8" x="400.509372" y="307.584" style="stroke: #000000; stroke-width: 0.8"/>
      </g>
     </g>
     <g id="text_9">
      <!-- 0.08 -->
      <g transform="translate(389.376559 322.182437)scale(0.1 -0.1)">
       <use xlink:href="#DejaVuSans-30"/>
       <use xlink:href="#DejaVuSans-2e" x="63.623047"/>
       <use xlink:href="#DejaVuSans-30" x="95.410156"/>
       <use xlink:href="#DejaVuSans-38" x="159.033203"/>
      </g>
     </g>
    </g>
   </g>
   <g id="matplotlib.axis_2">
    <g id="ytick_1">
     <g id="line2d_10">
      <defs>
       <path id="md569b6ef9b" d="M 0 0 
L -3.5 0 
" style="stroke: #000000; stroke-width: 0.8"/>
      </defs>
      <g>
       <use xlink:href="#md569b6ef9b" x="57.6" y="301.024135" style="stroke: #000000; stroke-width: 0.8"/>
      </g>
     </g>
     <g id="text_10">
      <!-- −0.08 -->
      <g transform="translate(19.954687 304.823354)scale(0.1 -0.1)">
       <use xlink:href="#DejaVuSans-2212"/>
       <use xlink:href="#DejaVuSans-30" x="83.789062"/>
       <use xlink:href="#DejaVuSans-2e" x="147.412109"/>
       <use xlink:href="#DejaVuSans-30" x="179.199219"/>
       <use xlink:href="#DejaVuSans-38" x="242.822266"/>
      </g>
     </g>
    </g>
    <g id="ytick_2">
     <g id="line2d_11">
      <g>
       <use xlink:href="#md569b6ef9b" x="57.6" y="269.90377" style="stroke: #000000; stroke-width: 0.8"/>
      </g>
     </g>
     <g id="text_11">
      <!-- −0.06 -->
      <g transform="translate(19.954687 273.702988)scale(0.1 -0.1)">
       <use xlink:href="#DejaVuSans-2212"/>
       <use xlink:href="#DejaVuSans-30" x="83.789062"/>
       <use xlink:href="#DejaVuSans-2e" x="147.412109"/>
       <use xlink:href="#DejaVuSans-30" x="179.199219"/>
       <use xlink:href="#DejaVuSans-36" x="242.822266"/>
      </g>
     </g>
    </g>
    <g id="ytick_3">
     <g id="line2d_12">
      <g>
       <use xlink:href="#md569b6ef9b" x="57.6" y="238.783404" style="stroke: #000000; stroke-width: 0.8"/>
      </g>
     </g>
     <g id="text_12">
      <!-- −0.04 -->
      <g transform="translate(19.954687 242.582623)scale(0.1 -0.1)">
       <use xlink:href="#DejaVuSans-2212"/>
       <use xlink:href="#DejaVuSans-30" x="83.789062"/>
       <use xlink:href="#DejaVuSans-2e" x="147.412109"/>
       <use xlink:href="#DejaVuSans-30" x="179.199219"/>
       <use xlink:href="#DejaVuSans-34" x="242.822266"/>
      </g>
     </g>
    </g>
    <g id="ytick_4">
     <g id="line2d_13">
      <g>
       <use xlink:href="#md569b6ef9b" x="57.6" y="207.663038" style="stroke: #000000; stroke-width: 0.8"/>
      </g>
     </g>
     <g id="text_13">
      <!-- −0.02 -->
      <g transform="translate(19.954687 211.462257)scale(0.1 -0.1)">
       <use xlink:href="#DejaVuSans-2212"/>
       <use xlink:href="#DejaVuSans-30" x="83.789062"/>
       <use xlink:href="#DejaVuSans-2e" x="147.412109"/>
       <use xlink:href="#DejaVuSans-30" x="179.199219"/>
       <use xlink:href="#DejaVuSans-32" x="242.822266"/>
      </g>
     </g>
    </g>
    <g id="ytick_5">
     <g id="line2d_14">
      <g>
       <use xlink:href="#md569b6ef9b" x="57.6" y="176.542673" style="stroke: #000000; stroke-width: 0.8"/>
      </g>
     </g>
     <g id="text_14">
      <!-- 0.00 -->
      <g transform="translate(28.334375 180.341891)scale(0.1 -0.1)">
       <use xlink:href="#DejaVuSans-30"/>
       <use xlink:href="#DejaVuSans-2e" x="63.623047"/>
       <use xlink:href="#DejaVuSans-30" x="95.410156"/>
       <use xlink:href="#DejaVuSans-30" x="159.033203"/>
      </g>
     </g>
    </g>
    <g id="ytick_6">
     <g id="line2d_15">
      <g>
       <use xlink:href="#md569b6ef9b" x="57.6" y="145.422307" style="stroke: #000000; stroke-width: 0.8"/>
      </g>
     </g>
     <g id="text_15">
      <!-- 0.02 -->
      <g transform="translate(28.334375 149.221526)scale(0.1 -0.1)">
       <use xlink:href="#DejaVuSans-30"/>
       <use xlink:href="#DejaVuSans-2e" x="63.623047"/>
       <use xlink:href="#DejaVuSans-30" x="95.410156"/>
       <use xlink:href="#DejaVuSans-32" x="159.033203"/>
      </g>
     </g>
    </g>
    <g id="ytick_7">
     <g id="line2d_16">
      <g>
       <use xlink:href="#md569b6ef9b" x="57.6" y="114.301941" style="stroke: #000000; stroke-width: 0.8"/>
      </g>
     </g>
     <g id="text_16">
      <!-- 0.04 -->
      <g transform="translate(28.334375 118.10116)scale(0.1 -0.1)">
       <use xlink:href="#DejaVuSans-30"/>
       <use xlink:href="#DejaVuSans-2e" x="63.623047"/>
       <use xlink:href="#DejaVuSans-30" x="95.410156"/>
       <use xlink:href="#DejaVuSans-34" x="159.033203"/>
      </g>
     </g>
    </g>
    <g id="ytick_8">
     <g id="line2d_17">
      <g>
       <use xlink:href="#md569b6ef9b" x="57.6" y="83.181576" style="stroke: #000000; stroke-width: 0.8"/>
      </g>
     </g>
     <g id="text_17">
      <!-- 0.06 -->
      <g transform="translate(28.334375 86.980794)scale(0.1 -0.1)">
       <use xlink:href="#DejaVuSans-30"/>
       <use xlink:href="#DejaVuSans-2e" x="63.623047"/>
       <use xlink:href="#DejaVuSans-30" x="95.410156"/>
       <use xlink:href="#DejaVuSans-36" x="159.033203"/>
      </g>
     </g>
    </g>
    <g id="ytick_9">
     <g id="line2d_18">
      <g>
       <use xlink:href="#md569b6ef9b" x="57.6" y="52.06121" style="stroke: #000000; stroke-width: 0.8"/>
      </g>
     </g>
     <g id="text_18">
      <!-- 0.08 -->
      <g transform="translate(28.334375 55.860429)scale(0.1 -0.1)">
       <use xlink:href="#DejaVuSans-30"/>
       <use xlink:href="#DejaVuSans-2e" x="63.623047"/>
       <use xlink:href="#DejaVuSans-30" x="95.410156"/>
       <use xlink:href="#DejaVuSans-38" x="159.033203"/>
      </g>
     </g>
    </g>
   </g>
   <g id="patch_4">
    <path d="M 57.6 307.584 
L 57.6 41.472 
" style="fill: none; stroke: #000000; stroke-width: 0.8; stroke-linejoin: miter; stroke-linecap: square"/>
   </g>
   <g id="patch_5">
    <path d="M 414.72 307.584 
L 414.72 41.472 
" style="fill: none; stroke: #000000; stroke-width: 0.8; stroke-linejoin: miter; stroke-linecap: square"/>
   </g>
   <g id="patch_6">
    <path d="M 57.6 307.584 
L 414.72 307.584 
" style="fill: none; stroke: #000000; stroke-width: 0.8; stroke-linejoin: miter; stroke-linecap: square"/>
   </g>
   <g id="patch_7">
    <path d="M 57.6 41.472 
L 414.72 41.472 
" style="fill: none; stroke: #000000; stroke-width: 0.8; stroke-linejoin: miter; stroke-linecap: square"/>
   </g>
   <g id="text_19">
    <!-- a -->
    <g transform="translate(241.492398 140.718269)scale(0.15 -0.15)">
     <defs>
      <path id="DejaVuSans-61" d="M 2194 1759 
Q 1497 1759 1228 1600 
Q 959 1441 959 1056 
Q 959 750 1161 570 
Q 1363 391 1709 391 
Q 2188 391 2477 730 
Q 2766 1069 2766 1631 
L 2766 1759 
L 2194 1759 
z
M 3341 1997 
L 3341 0 
L 2766 0 
L 2766 531 
Q 2569 213 2275 61 
Q 1981 -91 1556 -91 
Q 1019 -91 701 211 
Q 384 513 384 1019 
Q 384 1609 779 1909 
Q 1175 2209 1959 2209 
L 2766 2209 
L 2766 2266 
Q 2766 2663 2505 2880 
Q 2244 3097 1772 3097 
Q 1472 3097 1187 3025 
Q 903 2953 641 2809 
L 641 3341 
Q 956 3463 1253 3523 
Q 1550 3584 1831 3584 
Q 2591 3584 2966 3190 
Q 3341 2797 3341 1997 
z
" transform="scale(0.015625)"/>
     </defs>
     <use xlink:href="#DejaVuSans-61"/>
    </g>
   </g>
   <g id="text_20">
    <!-- b -->
    <g transform="translate(179.225409 130.435022)scale(0.15 -0.15)">
     <defs>
      <path id="DejaVuSans-62" d="M 3116 1747 
Q 3116 2381 2855 2742 
Q 2594 3103 2138 3103 
Q 1681 3103 1420 2742 
Q 1159 2381 1159 1747 
Q 1159 1113 1420 752 
Q 1681 391 2138 391 
Q 2594 391 2855 752 
Q 3116 1113 3116 1747 
z
M 1159 2969 
Q 1341 3281 1617 3432 
Q 1894 3584 2278 3584 
Q 2916 3584 3314 3078 
Q 3713 2572 3713 1747 
Q 3713 922 3314 415 
Q 2916 -91 2278 -91 
Q 1894 -91 1617 61 
Q 1341 213 1159 525 
L 1159 0 
L 581 0 
L 581 4863 
L 1159 4863 
L 1159 2969 
z
" transform="scale(0.015625)"/>
     </defs>
     <use xlink:href="#DejaVuSans-62"/>
    </g>
   </g>
   <g id="text_21">
    <!-- c -->
    <g transform="translate(190.644924 162.47673)scale(0.15 -0.15)">
     <defs>
      <path id="DejaVuSans-63" d="M 3122 3366 
L 3122 2828 
Q 2878 2963 2633 3030 
Q 2388 3097 2138 3097 
Q 1578 3097 1268 2742 
Q 959 2388 959 1747 
Q 959 1106 1268 751 
Q 1578 397 2138 397 
Q 2388 397 2633 464 
Q 2878 531 3122 666 
L 3122 134 
Q 2881 22 2623 -34 
Q 2366 -91 2075 -91 
Q 1284 -91 818 406 
Q 353 903 353 1747 
Q 353 2603 823 3093 
Q 1294 3584 2113 3584 
Q 2378 3584 2631 3529 
Q 2884 3475 3122 3366 
z
" transform="scale(0.015625)"/>
     </defs>
     <use xlink:href="#DejaVuSans-63"/>
    </g>
   </g>
   <g id="text_22">
    <!-- GPC-system -->
    <g transform="translate(199.847813 35.472)scale(0.12 -0.12)">
     <defs>
      <path id="DejaVuSans-47" d="M 3809 666 
L 3809 1919 
L 2778 1919 
L 2778 2438 
L 4434 2438 
L 4434 434 
Q 4069 175 3628 42 
Q 3188 -91 2688 -91 
Q 1594 -91 976 548 
Q 359 1188 359 2328 
Q 359 3472 976 4111 
Q 1594 4750 2688 4750 
Q 3144 4750 3555 4637 
Q 3966 4525 4313 4306 
L 4313 3634 
Q 3963 3931 3569 4081 
Q 3175 4231 2741 4231 
Q 1884 4231 1454 3753 
Q 1025 3275 1025 2328 
Q 1025 1384 1454 906 
Q 1884 428 2741 428 
Q 3075 428 3337 486 
Q 3600 544 3809 666 
z
" transform="scale(0.015625)"/>
      <path id="DejaVuSans-50" d="M 1259 4147 
L 1259 2394 
L 2053 2394 
Q 2494 2394 2734 2622 
Q 2975 2850 2975 3272 
Q 2975 3691 2734 3919 
Q 2494 4147 2053 4147 
L 1259 4147 
z
M 628 4666 
L 2053 4666 
Q 2838 4666 3239 4311 
Q 3641 3956 3641 3272 
Q 3641 2581 3239 2228 
Q 2838 1875 2053 1875 
L 1259 1875 
L 1259 0 
L 628 0 
L 628 4666 
z
" transform="scale(0.015625)"/>
      <path id="DejaVuSans-43" d="M 4122 4306 
L 4122 3641 
Q 3803 3938 3442 4084 
Q 3081 4231 2675 4231 
Q 1875 4231 1450 3742 
Q 1025 3253 1025 2328 
Q 1025 1406 1450 917 
Q 1875 428 2675 428 
Q 3081 428 3442 575 
Q 3803 722 4122 1019 
L 4122 359 
Q 3791 134 3420 21 
Q 3050 -91 2638 -91 
Q 1578 -91 968 557 
Q 359 1206 359 2328 
Q 359 3453 968 4101 
Q 1578 4750 2638 4750 
Q 3056 4750 3426 4639 
Q 3797 4528 4122 4306 
z
" transform="scale(0.015625)"/>
      <path id="DejaVuSans-2d" d="M 313 2009 
L 1997 2009 
L 1997 1497 
L 313 1497 
L 313 2009 
z
" transform="scale(0.015625)"/>
      <path id="DejaVuSans-73" d="M 2834 3397 
L 2834 2853 
Q 2591 2978 2328 3040 
Q 2066 3103 1784 3103 
Q 1356 3103 1142 2972 
Q 928 2841 928 2578 
Q 928 2378 1081 2264 
Q 1234 2150 1697 2047 
L 1894 2003 
Q 2506 1872 2764 1633 
Q 3022 1394 3022 966 
Q 3022 478 2636 193 
Q 2250 -91 1575 -91 
Q 1294 -91 989 -36 
Q 684 19 347 128 
L 347 722 
Q 666 556 975 473 
Q 1284 391 1588 391 
Q 1994 391 2212 530 
Q 2431 669 2431 922 
Q 2431 1156 2273 1281 
Q 2116 1406 1581 1522 
L 1381 1569 
Q 847 1681 609 1914 
Q 372 2147 372 2553 
Q 372 3047 722 3315 
Q 1072 3584 1716 3584 
Q 2034 3584 2315 3537 
Q 2597 3491 2834 3397 
z
" transform="scale(0.015625)"/>
      <path id="DejaVuSans-79" d="M 2059 -325 
Q 1816 -950 1584 -1140 
Q 1353 -1331 966 -1331 
L 506 -1331 
L 506 -850 
L 844 -850 
Q 1081 -850 1212 -737 
Q 1344 -625 1503 -206 
L 1606 56 
L 191 3500 
L 800 3500 
L 1894 763 
L 2988 3500 
L 3597 3500 
L 2059 -325 
z
" transform="scale(0.015625)"/>
      <path id="DejaVuSans-74" d="M 1172 4494 
L 1172 3500 
L 2356 3500 
L 2356 3053 
L 1172 3053 
L 1172 1153 
Q 1172 725 1289 603 
Q 1406 481 1766 481 
L 2356 481 
L 2356 0 
L 1766 0 
Q 1100 0 847 248 
Q 594 497 594 1153 
L 594 3053 
L 172 3053 
L 172 3500 
L 594 3500 
L 594 4494 
L 1172 4494 
z
" transform="scale(0.015625)"/>
      <path id="DejaVuSans-65" d="M 3597 1894 
L 3597 1613 
L 953 1613 
Q 991 1019 1311 708 
Q 1631 397 2203 397 
Q 2534 397 2845 478 
Q 3156 559 3463 722 
L 3463 178 
Q 3153 47 2828 -22 
Q 2503 -91 2169 -91 
Q 1331 -91 842 396 
Q 353 884 353 1716 
Q 353 2575 817 3079 
Q 1281 3584 2069 3584 
Q 2775 3584 3186 3129 
Q 3597 2675 3597 1894 
z
M 3022 2063 
Q 3016 2534 2758 2815 
Q 2500 3097 2075 3097 
Q 1594 3097 1305 2825 
Q 1016 2553 972 2059 
L 3022 2063 
z
" transform="scale(0.015625)"/>
      <path id="DejaVuSans-6d" d="M 3328 2828 
Q 3544 3216 3844 3400 
Q 4144 3584 4550 3584 
Q 5097 3584 5394 3201 
Q 5691 2819 5691 2113 
L 5691 0 
L 5113 0 
L 5113 2094 
Q 5113 2597 4934 2840 
Q 4756 3084 4391 3084 
Q 3944 3084 3684 2787 
Q 3425 2491 3425 1978 
L 3425 0 
L 2847 0 
L 2847 2094 
Q 2847 2600 2669 2842 
Q 2491 3084 2119 3084 
Q 1678 3084 1418 2786 
Q 1159 2488 1159 1978 
L 1159 0 
L 581 0 
L 581 3500 
L 1159 3500 
L 1159 2956 
Q 1356 3278 1631 3431 
Q 1906 3584 2284 3584 
Q 2666 3584 2933 3390 
Q 3200 3197 3328 2828 
z
" transform="scale(0.015625)"/>
     </defs>
     <use xlink:href="#DejaVuSans-47"/>
     <use xlink:href="#DejaVuSans-50" x="77.490234"/>
     <use xlink:href="#DejaVuSans-43" x="137.792969"/>
     <use xlink:href="#DejaVuSans-2d" x="207.617188"/>
     <use xlink:href="#DejaVuSans-73" x="243.701172"/>
     <use xlink:href="#DejaVuSans-79" x="295.800781"/>
     <use xlink:href="#DejaVuSans-73" x="354.980469"/>
     <use xlink:href="#DejaVuSans-74" x="407.080078"/>
     <use xlink:href="#DejaVuSans-65" x="446.289062"/>
     <use xlink:href="#DejaVuSans-6d" x="507.8125"/>
    </g>
   </g>
  </g>
 </g>
 <defs>
  <clipPath id="pc91ceb5b8a">
   <rect x="57.6" y="41.472" width="357.12" height="266.112"/>
  </clipPath>
 </defs>
</svg>
